<svg width="64" height="64" viewBox="0 0 64 64" fill="none" xmlns="http://www.w3.org/2000/svg">
<g clip-path="url(#clip0_3_21)">
<path d="M0 6.21359C0 2.78192 2.78192 0 6.21359 0H57.7864C61.2181 0 64 2.78192 64 6.21359V57.7864C64 61.2181 61.2181 64 57.7864 64H6.21359C2.78192 64 0 61.2181 0 57.7864V6.21359Z" fill="#87D68D"/>
<path d="M34.424 52.96C32.44 52.96 30.52 52.704 28.664 52.192C26.872 51.68 25.304 50.976 23.96 50.08C22.616 49.184 21.592 48.128 20.888 46.912L22.328 47.776V52H16.76V38.944H21.752L22.328 45.184L20.984 40.672C21.688 43.04 23.256 44.864 25.688 46.144C28.184 47.424 30.776 48.064 33.464 48.064C35.896 48.064 37.912 47.584 39.512 46.624C41.176 45.664 42.008 44.32 42.008 42.592C42.008 40.544 41.304 39.136 39.896 38.368C38.552 37.536 36.376 36.8 33.368 36.16L28.088 35.008C24.568 34.112 21.784 32.928 19.736 31.456C17.688 29.92 16.664 27.392 16.664 23.872C16.664 20.48 17.976 17.888 20.6 16.096C23.288 14.24 26.616 13.312 30.584 13.312C32.12 13.312 33.72 13.536 35.384 13.984C37.112 14.368 38.68 14.976 40.088 15.808C41.496 16.64 42.488 17.664 43.064 18.88L41.624 18.4V14.08H47.288V27.04H42.296L41.048 17.92L42.68 24.256C42.424 23.104 41.688 22.112 40.472 21.28C39.32 20.384 37.944 19.68 36.344 19.168C34.808 18.656 33.272 18.4 31.736 18.4C29.688 18.4 27.832 18.816 26.168 19.648C24.568 20.48 23.768 21.824 23.768 23.68C23.768 25.088 24.312 26.176 25.4 26.944C26.552 27.712 28.408 28.416 30.968 29.056L35.864 30.112C38.296 30.688 40.472 31.392 42.392 32.224C44.376 32.992 45.944 34.144 47.096 35.68C48.248 37.152 48.824 39.264 48.824 42.016C48.824 44.512 48.12 46.592 46.712 48.256C45.368 49.856 43.576 51.04 41.336 51.808C39.16 52.576 36.856 52.96 34.424 52.96Z" fill="white"/>
</g>
<defs>
<clipPath id="clip0_3_21">
<rect width="64" height="64" fill="white"/>
</clipPath>
</defs>
</svg>
